<svg width="100%" viewBox="0 0 690 410" role="img" xmlns="http://www.w3.org/2000/svg" style="">
  <title>MeetingFlow Logo</title>
  <desc>לוגו MF על רקע לבן עם אותיות ממורכזות</desc>

  <rect fill="#ffffff" x="0" y="0" width="680" height="400"/>
  <rect x="140" y="80" width="400" height="240" rx="28" fill="#0a0e1a"/>
  <rect x="140" y="80" width="400" height="240" rx="28" fill="none" stroke="#1e3a5f" stroke-width="1.5"/>

  <rect x="233" y="138" width="18" height="104" rx="3" fill="#0ea5e9"/>
  <rect x="319" y="138" width="18" height="104" rx="3" fill="#0ea5e9"/>
  <polygon points="233,138 251,138 295,196 277,196" fill="#0284c7"/>
  <polygon points="337,138 319,138 275,196 293,196" fill="#0ea5e9"/>

  <rect x="357" y="138" width="18" height="104" rx="3" fill="#0ea5e9"/>
  <rect x="357" y="138" width="90" height="18" rx="3" fill="#0ea5e9"/>
  <rect x="357" y="188" width="68" height="16" rx="3" fill="#0ea5e9"/>

  <circle cx="228" cy="270" r="4" fill="#38bdf8"/>
  <circle cx="248" cy="270" r="4" fill="#0369a1"/>
  <circle cx="268" cy="270" r="4" fill="#38bdf8"/>
  <circle cx="288" cy="270" r="4" fill="#0369a1"/>
  <circle cx="308" cy="270" r="4" fill="#38bdf8"/>
  <circle cx="328" cy="270" r="4" fill="#0369a1"/>
  <circle cx="348" cy="270" r="4" fill="#38bdf8"/>
  <circle cx="368" cy="270" r="4" fill="#0369a1"/>
  <circle cx="388" cy="270" r="4" fill="#38bdf8"/>
  <circle cx="408" cy="270" r="4" fill="#0369a1"/>
  <circle cx="428" cy="270" r="4" fill="#38bdf8"/>
  <circle cx="448" cy="270" r="4" fill="#0369a1"/>

  <line x1="196" y1="258" x2="484" y2="258" stroke="#38bdf8" stroke-width="1" stroke-dasharray="4 3" fill="none" opacity="0.4"/>

  <text x="340" y="316" text-anchor="middle" fill="#0ea5e9" font-family="Inter, sans-serif" font-size="13" font-weight="600">MEETING FLOW</text>
  <text x="340" y="330" text-anchor="middle" fill="#38bdf8" font-family="Inter, sans-serif" font-size="10" font-weight="400" opacity="0.7">INTELLIGENT MEETING MANAGEMENT</text>
</svg>
